<svg width="174" height="89" viewBox="0 0 174 89" fill="none" xmlns="http://www.w3.org/2000/svg">
<path d="M0 77.3438V0H16.1718V17.9736C17.0214 15.5127 18.3252 13.6963 20.083 12.5245C21.8408 11.3233 23.8916 10.7226 26.2353 10.7226C30.8056 10.7226 34.1308 12.1583 36.2109 15.0293C38.291 17.9004 39.331 21.753 39.331 26.587V77.3438H23.4228V27.5977C23.4228 26.1622 23.1152 24.9903 22.5 24.0821C21.914 23.1739 20.9765 22.7197 19.6875 22.7197C18.6035 22.7197 17.7392 23.1884 17.0947 24.1259C16.4795 25.0634 16.1718 26.1768 16.1718 27.4659V77.3438H0ZM64.6875 78.0469C51.5625 78.0469 45 71.2354 45 57.6124V31.1572C45 24.9462 46.7431 19.9951 50.2295 16.3037C53.7158 12.583 58.5351 10.7226 64.6875 10.7226C70.8691 10.7226 75.7031 12.583 79.1894 16.3037C82.6757 19.9951 84.4189 24.9462 84.4189 31.1572V57.6124C84.4189 71.2354 77.8418 78.0469 64.6875 78.0469ZM64.6875 65.918C66.0058 65.918 66.9433 65.4492 67.5 64.5117C68.0859 63.5449 68.3789 62.3292 68.3789 60.8643V28.6523C68.3789 24.8144 67.1484 22.8955 64.6875 22.8955C62.2265 22.8955 60.9961 24.8144 60.9961 28.6523V60.8643C60.9961 62.3292 61.2744 63.5449 61.831 64.5117C62.417 65.4492 63.3691 65.918 64.6875 65.918ZM90.2636 88.33V11.4257H106.26V18.4571C107.227 16.0254 108.56 14.1357 110.259 12.788C111.987 11.4111 114.448 10.7226 117.642 10.7226C121.948 10.7226 124.981 12.2901 126.738 15.4249C128.525 18.5596 129.419 22.6612 129.419 27.7295V60.1612C129.419 63.5303 128.936 66.5772 127.969 69.3018C127.031 71.9971 125.537 74.1358 123.486 75.7178C121.465 77.2706 118.814 78.0469 115.532 78.0469C111.255 78.0469 108.164 75.4688 106.26 70.3126V88.33H90.2636ZM109.995 65.7861C111.636 65.7861 112.617 64.9658 112.94 63.3251C113.291 61.6845 113.467 59.663 113.467 57.2607V31.5088C113.467 29.0772 113.291 27.0556 112.94 25.4443C112.617 23.8037 111.636 22.9834 109.995 22.9834C108.296 22.9834 107.241 23.8184 106.831 25.4883C106.45 27.129 106.26 29.1358 106.26 31.5088V57.2607C106.26 59.6337 106.45 61.6552 106.831 63.3251C107.241 64.9658 108.296 65.7861 109.995 65.7861ZM153.897 78.0469C149.209 78.0469 145.474 77.1679 142.69 75.4101C139.907 73.6523 137.915 71.1181 136.714 67.8076C135.513 64.497 134.912 60.5127 134.912 55.8545V29.3554C134.912 23.2324 136.67 18.6035 140.186 15.4688C143.701 12.3047 148.535 10.7226 154.688 10.7226C167.344 10.7226 173.672 16.9335 173.672 29.3554V34.1455C173.672 39.9462 173.613 43.8427 173.496 45.8349H150.645V58.5792C150.645 59.751 150.718 60.9083 150.864 62.0508C151.011 63.1641 151.333 64.087 151.831 64.8194C152.358 65.5518 153.193 65.918 154.336 65.918C155.977 65.918 157.002 65.2149 157.412 63.8086C157.822 62.3731 158.027 60.5127 158.027 58.2276V51.8994H173.672V55.6348C173.672 60.5567 173.057 64.6876 171.826 68.0274C170.625 71.3379 168.574 73.8427 165.674 75.5419C162.803 77.2119 158.877 78.0469 153.897 78.0469ZM150.557 38.0126H158.027V29.1357C158.027 26.7626 157.734 25.0634 157.148 24.038C156.563 22.9833 155.684 22.4561 154.512 22.4561C153.252 22.4561 152.271 22.9541 151.567 23.9501C150.894 24.9462 150.557 26.6748 150.557 29.1357V38.0126Z" fill="#1F5EA8"/>
</svg>
