<svg width="808" height="636" viewBox="0 0 808 636" fill="none" xmlns="http://www.w3.org/2000/svg">
<g filter="url(#filter0_d_3116_5080)">
<path d="M749.176 313.304C728.524 313.304 710.853 327.665 700.953 337.879C697.871 341.076 694.12 343.628 689.941 345.369C685.761 347.111 681.245 348.004 676.681 347.992C667.788 347.992 659.259 344.636 652.97 338.662C646.681 332.687 643.148 324.585 643.148 316.136L661.671 134.1L460.58 152.607C451.687 152.607 443.158 149.251 436.869 143.276C430.58 137.302 427.047 129.199 427.047 120.751C427.035 116.415 427.975 112.125 429.808 108.154C431.641 104.184 434.327 100.621 437.693 97.6927C448.338 88.2875 463.561 71.4996 463.561 51.7791C463.561 21.4397 437.906 0 401.498 0C365.091 0 339.436 21.3386 339.436 51.7791C339.436 71.4996 354.552 88.2875 365.304 97.6927C368.67 100.621 371.355 104.184 373.188 108.154C375.021 112.125 375.962 116.415 375.949 120.751C375.949 129.199 372.417 137.302 366.128 143.276C359.839 149.251 351.31 152.607 342.417 152.607L146.222 134.605L164.639 316.641C164.639 325.073 161.121 333.16 154.855 339.132C148.589 345.103 140.087 348.471 131.212 348.498C126.633 348.511 122.1 347.619 117.903 345.878C113.706 344.137 109.937 341.585 106.834 338.385C96.9342 328.272 79.3693 313.81 58.6108 313.81C26.6747 313.81 4 338.182 4 372.769C4 407.356 26.4618 431.728 58.6108 431.728C79.3693 431.728 96.9342 417.368 106.834 407.154C109.937 403.953 113.706 401.401 117.903 399.66C122.1 397.919 126.633 397.027 131.212 397.041C140.087 397.067 148.589 400.436 154.855 406.407C161.121 412.378 164.639 420.465 164.639 428.897L145.158 621.046L144.519 627.013H662.204L662.843 620.742L643.361 428.593C643.361 420.145 646.894 412.042 653.183 406.068C659.471 400.093 668.001 396.737 676.894 396.737C681.458 396.725 685.974 397.619 690.153 399.36C694.333 401.102 698.084 403.653 701.166 406.85C711.066 416.963 728.737 431.425 749.389 431.425C781.326 431.425 804 407.053 804 372.466C804 337.879 781.325 313.304 749.176 313.304Z" fill="white"/>
</g>
<path d="M661.854 611.365L539.896 489.382L459.674 569.604L302.514 412.444L150.813 564.142L145.083 620.67L144.444 626.639H662.125L662.764 620.368L661.854 611.365Z" fill="#A0A0A0"/>
<path d="M700.953 337.879C710.853 327.665 728.524 313.304 749.176 313.304C781.325 313.304 804 337.879 804 372.466C804 407.053 781.326 431.425 749.389 431.425C728.737 431.425 711.066 416.963 701.166 406.85C698.084 403.653 694.333 401.102 690.153 399.36C685.974 397.619 681.458 396.725 676.894 396.737C668.001 396.737 659.471 400.093 653.183 406.068C646.894 412.042 643.361 420.145 643.361 428.593L661.93 611.738L539.971 489.757L459.748 569.98L302.588 412.819L150.889 564.518L164.639 428.897C164.639 420.465 161.121 412.378 154.855 406.407C148.589 400.436 140.087 397.067 131.212 397.041C126.633 397.027 122.1 397.919 117.903 399.66C113.706 401.401 109.937 403.953 106.834 407.154C96.9342 417.368 79.3693 431.728 58.6108 431.728C26.4618 431.728 4 407.356 4 372.769C4 338.182 26.6747 313.81 58.6108 313.81C79.3693 313.81 96.9342 328.272 106.834 338.385C109.937 341.585 113.706 344.137 117.903 345.878C122.1 347.619 126.633 348.511 131.212 348.498C140.087 348.471 148.589 345.103 154.855 339.132C161.121 333.16 164.639 325.073 164.639 316.641L146.222 134.605L342.417 152.607C351.31 152.607 359.839 149.251 366.128 143.276C372.417 137.302 375.949 129.199 375.949 120.751C375.962 116.415 375.021 112.125 373.188 108.154C371.355 104.184 368.67 100.621 365.304 97.6927C354.552 88.2875 339.436 71.4996 339.436 51.7791C339.436 21.3386 365.091 0 401.498 0C437.905 0 463.561 21.4397 463.561 51.7791C463.561 71.4996 448.338 88.2875 437.693 97.6927C434.327 100.621 431.641 104.184 429.808 108.154C427.975 112.125 427.035 116.415 427.047 120.751C427.047 129.199 430.58 137.302 436.869 143.276C443.158 149.251 451.687 152.607 460.58 152.607L661.671 134.1L643.148 316.136C643.148 324.585 646.681 332.687 652.97 338.662C659.259 344.636 667.788 347.992 676.681 347.992C681.245 348.004 685.761 347.111 689.941 345.369C694.12 343.628 697.871 341.076 700.953 337.879Z" fill="#D9D9D9"/>
<path d="M578.302 311.224C585.528 266.705 555.297 224.757 510.778 217.53C466.259 210.304 424.311 240.536 417.085 285.055C409.858 329.573 440.09 371.521 484.609 378.748C529.128 385.974 571.076 355.743 578.302 311.224Z" fill="#A0A0A0"/>
<path d="M701.313 338.226C698.182 341.474 694.374 344.064 690.133 345.831C685.892 347.598 681.31 348.504 676.68 348.492C667.662 348.492 659.009 345.089 652.626 339.024C646.241 332.958 642.648 324.726 642.648 316.136V316.11L642.651 316.085L661.112 134.653L460.626 153.105L460.603 153.107H460.58C451.562 153.107 442.909 149.704 436.525 143.639C430.14 137.573 426.548 129.341 426.547 120.752C426.534 116.343 427.491 111.981 429.354 107.945C431.217 103.909 433.945 100.29 437.363 97.3168C442.666 92.6311 449.098 86.1166 454.201 78.3301C459.305 70.5418 463.061 61.5097 463.061 51.7791C463.061 21.7967 437.718 0.5 401.498 0.5C383.39 0.5 367.994 5.80649 357.135 14.8584C346.281 23.9052 339.936 36.7103 339.936 51.7791C339.936 61.5105 343.666 70.5429 348.757 78.3306C353.846 86.1173 360.278 92.6317 365.633 97.3163C369.051 100.289 371.779 103.909 373.642 107.945C375.506 111.981 376.462 116.343 376.449 120.752C376.449 129.341 372.857 137.573 366.472 143.639C360.088 149.704 351.435 153.107 342.417 153.107H342.394L342.371 153.105L146.781 135.159L165.136 316.591L165.139 316.616V316.641C165.139 325.214 161.562 333.431 155.2 339.494C148.839 345.556 140.213 348.971 131.214 348.998C126.568 349.012 121.97 348.106 117.712 346.34C113.454 344.573 109.627 341.984 106.477 338.734C96.5902 328.635 79.152 314.31 58.6108 314.31C42.7761 314.31 29.2582 320.349 19.696 330.659C10.1314 340.972 4.5 355.586 4.5 372.769C4.5 389.954 10.079 404.567 19.6166 414.879C29.1516 425.189 42.6689 431.228 58.6108 431.228C79.1527 431.228 96.5914 417.003 106.475 406.806C109.626 403.555 113.453 400.965 117.712 399.198C121.97 397.432 126.569 396.527 131.214 396.541C140.213 396.568 148.839 399.983 155.2 406.045C161.562 412.108 165.139 420.325 165.139 428.897V428.922L165.136 428.947L145.655 621.096L145.655 621.099L145.075 626.513H661.752M701.313 338.226C701.312 338.226 701.312 338.226 701.312 338.227L700.953 337.879L701.313 338.226ZM701.313 338.226C711.196 328.029 728.741 313.804 749.176 313.804C765.117 313.804 778.688 319.894 788.277 330.254C797.868 340.618 803.5 355.282 803.5 372.466C803.5 389.649 797.869 404.263 788.304 414.576C778.742 424.886 765.224 430.925 749.389 430.925C728.955 430.925 711.41 416.6 701.523 406.501M701.523 406.501C698.393 403.254 694.586 400.666 690.346 398.899C686.104 397.132 681.523 396.225 676.893 396.237C667.875 396.238 659.222 399.64 652.838 405.705C646.453 411.771 642.861 420.004 642.861 428.593V428.619L642.864 428.644L662.34 620.742M701.523 406.501C701.523 406.501 701.523 406.501 701.523 406.501L701.167 406.849L701.526 406.503C701.525 406.503 701.524 406.502 701.523 406.501ZM662.34 620.742L661.752 626.513M662.34 620.742L662.345 620.793L662.843 620.742M662.34 620.742L662.345 620.692L662.843 620.742M661.752 626.513L661.706 626.962L662.204 627.013M661.752 626.513H662.204V627.013M662.204 627.013L662.843 620.742M662.204 627.013L676.894 396.737C668.001 396.737 659.471 400.093 653.183 406.068C646.894 412.042 643.361 420.145 643.361 428.593L662.843 620.742" stroke="#A0A0A0"/>
<defs>
<filter id="filter0_d_3116_5080" x="0" y="0" width="808" height="635.012" filterUnits="userSpaceOnUse" color-interpolation-filters="sRGB">
<feFlood flood-opacity="0" result="BackgroundImageFix"/>
<feColorMatrix in="SourceAlpha" type="matrix" values="0 0 0 0 0 0 0 0 0 0 0 0 0 0 0 0 0 0 127 0" result="hardAlpha"/>
<feOffset dy="4"/>
<feGaussianBlur stdDeviation="2"/>
<feComposite in2="hardAlpha" operator="out"/>
<feColorMatrix type="matrix" values="0 0 0 0 0.629167 0 0 0 0 0.629167 0 0 0 0 0.629167 0 0 0 0.35 0"/>
<feBlend mode="normal" in2="BackgroundImageFix" result="effect1_dropShadow_3116_5080"/>
<feBlend mode="normal" in="SourceGraphic" in2="effect1_dropShadow_3116_5080" result="shape"/>
</filter>
</defs>
</svg>
